Men in Black III (2012) 720p BluRay MKV AC3 Eng NL Subs
.
[IMG]http://i.minus.com/jbsYIGqPMrrM9Y.jpg[/IMG]
.
PG-13  106 min  -  Action | Comedy | Sci-Fi  -   23 May 2012 (Netherlands)
. 
http://www.imdb.com/title/tt1409024/
. 
http://www.moviemeter.nl/film/82216/
.
Screens  
http://minus.com/l5eJJanmGkbT0 
http://minus.com/lyxq7gI1svuWL 
http://minus.com/lbi1JGvR8HSNsu 
http://minus.com/l5HpSJ74P1afd 
http://minus.com/lbxN0hrCAjoFOR
.
Video
ID                                       : 1
Format                                   : AVC
Format/Info                              : Advanced Video Codec
Format profile                           : High@L4.1
Format settings, CABAC                   : Yes
Format settings, ReFrames                : 5 frames
Codec ID                                 : V_MPEG4/ISO/AVC
Duration                                 : 1h 45mn
Bit rate mode                            : Variable
Bit rate                                 : 1 536 Kbps
Maximum bit rate                         : 62.5 Mbps
Width                                    : 1 280 pixels
Height                                   : 694 pixels
Display aspect ratio                     : 1.85:1
Frame rate                               : 23.976 fps
Color space                              : YUV
Chroma subsampling                       : 4:2:0
Bit depth                                : 8 bits
Scan type                                : Progressive
Bits/(Pixel*Frame)                       : 0.072
Stream size                              : 1.11 GiB (78%)
Writing library                          : x264 core 125 r2208 d9d2288
Encoding settings                        : cabac=1 / ref=5 / deblock=1:-1:-1 / analyse=0x3:0x113 / me=hex / subme=9 / psy=1 / psy_rd=1.00:0.15 / mixed_ref=0 / me_range=16 / chroma_me=1 / trellis=1 / 8x8dct=1 / cqm=0 / deadzone=21,11 / fast_pskip=1 / chroma_qp_offset=-3 / threads=6 / lookahead_threads=1 / sliced_threads=0 / nr=0 / decimate=1 / interlaced=0 / bluray_compat=0 / constrained_intra=0 / bframes=3 / b_pyramid=0 / b_adapt=1 / b_bias=0 / direct=1 / weightb=1 / open_gop=0 / weightp=1 / keyint=240 / keyint_min=24 / scenecut=40 / intra_refresh=0 / rc_lookahead=20 / rc=2pass / mbtree=1 / bitrate=1536 / ratetol=1.0 / qcomp=0.60 / qpmin=0 / qpmax=69 / qpstep=4 / cplxblur=20.0 / qblur=0.5 / vbv_maxrate=62500 / vbv_bufsize=62500 / nal_hrd=vbr / ip_ratio=1.40 / aq=1:1.00
Default                                  : Yes
Forced                                   : No

Audio
ID                                       : 2
Format                                   : AC-3
Format/Info                              : Audio Coding 3
Mode extension                           : CM (complete main)
Format settings, Endianness              : Big
Codec ID                                 : A_AC3
Duration                                 : 1h 45mn
Bit rate mode                            : Constant
Bit rate                                 : 384 Kbps
Channel(s)                               : 6 channels
Channel positions                        : Front: L C R, Side: L R, LFE
Sampling rate                            : 48.0 KHz
Bit depth                                : 16 bits
Compression mode                         : Lossy
Stream size                              : 291 MiB (20%)
Language                                 : English
Default                                  : Yes
Forced                                   : No
.
Source: 720p
Subtitles: English, Dutch
NL Vertaling: SRT-TEAM
.
Enjoy Same picture quality as the big size.

